HIERARCHY
ROOT Hips
{
	OFFSET 0.00 0.00 0.00
	CHANNELS 6 Xposition Yposition Zposition Xrotation Yrotation Zrotation
	JOINT LeftUpLeg
	{
		OFFSET 3.64953 0.00000 0.00000
		CHANNELS 3 Xrotation Yrotation Zrotation
		JOINT LeftLeg
		{
			OFFSET 0.00000 -15.70580 0.00000
			CHANNELS 3 Xrotation Yrotation Zrotation
			JOINT LeftFoot
			{
				OFFSET 0.00000 -15.41867 0.00000
				CHANNELS 3 Xrotation Yrotation Zrotation
				JOINT LeftToeBase
				{
					OFFSET 0.00000 -1.53543 5.73033
					CHANNELS 3 Xrotation Yrotation Zrotation
					End Site
					{
						OFFSET 0.00000 0.00000 2.95275
					}
				}
			}
		}
	}
	JOINT RightUpLeg
	{
		OFFSET -3.64953 0.00000 0.00000
		CHANNELS 3 Xrotation Yrotation Zrotation
		JOINT RightLeg
		{
			OFFSET 0.00000 -15.70580 0.00000
			CHANNELS 3 Xrotation Yrotation Zrotation
			JOINT RightFoot
			{
				OFFSET 0.00000 -15.41867 0.00000
				CHANNELS 3 Xrotation Yrotation Zrotation
				JOINT RightToeBase
				{
					OFFSET 0.00000 -1.53543 5.73033
					CHANNELS 3 Xrotation Yrotation Zrotation
					End Site
					{
						OFFSET 0.00000 0.00000 2.95275
					}
				}
			}
		}
	}
	JOINT Spine
	{
		OFFSET 0.00000 0.03937 0.00000
		CHANNELS 3 Xrotation Yrotation Zrotation
		JOINT Spine1
		{
			OFFSET 0.00000 10.24829 0.00000
			CHANNELS 3 Xrotation Yrotation Zrotation
			JOINT Neck
			{
				OFFSET 0.00000 7.82687 0.00000
				CHANNELS 3 Xrotation Yrotation Zrotation
				JOINT Head
				{
					OFFSET 0.00000 6.90715 0.00000
					CHANNELS 3 Xrotation Yrotation Zrotation
					End Site
					{
						OFFSET 0.00000 4.52755 0.00000
					}
				}
			}
			JOINT LeftShoulder
			{
				OFFSET 0.00000 7.82687 0.00000
				CHANNELS 3 Xrotation Yrotation Zrotation
				JOINT LeftArm
				{
					OFFSET 6.71018 -0.00002 0.00000
					CHANNELS 3 Xrotation Yrotation Zrotation
					JOINT LeftForeArm
					{
						OFFSET 10.94419 -0.00004 0.00000
						CHANNELS 3 Xrotation Yrotation Zrotation
						JOINT LeftHand
						{
							OFFSET 8.52010 -0.00003 0.00000
							CHANNELS 3 Xrotation Yrotation Zrotation
							JOINT LeftHandThumb
							{
								OFFSET 0.00000 0.00000 0.00000
								CHANNELS 3 Xrotation Yrotation Zrotation
								End Site
								{
									OFFSET 0.00000 0.00000 3.93700
								}
							}
							JOINT L_Wrist_End
							{
								OFFSET 3.93700 -0.00001 0.00000
								CHANNELS 3 Xrotation Yrotation Zrotation
							}
						}
					}
				}
			}
			JOINT RightShoulder
			{
				OFFSET 0.00000 7.82687 0.00000
				CHANNELS 3 Xrotation Yrotation Zrotation
				JOINT RightArm
				{
					OFFSET -6.71018 -0.00002 0.00000
					CHANNELS 3 Xrotation Yrotation Zrotation
					JOINT RightForeArm
					{
						OFFSET -10.94419 -0.00004 0.00000
						CHANNELS 3 Xrotation Yrotation Zrotation
						JOINT RightHand
						{
							OFFSET -8.52010 -0.00003 0.00000
							CHANNELS 3 Xrotation Yrotation Zrotation
							JOINT RightHandThumb
							{
								OFFSET 0.00000 0.00000 0.00000
								CHANNELS 3 Xrotation Yrotation Zrotation
								End Site
								{
									OFFSET 0.00000 0.00000 3.93700
								}
							}
							JOINT R_Wrist_End
							{
								OFFSET -5.39369 -0.00002 0.00000
								CHANNELS 3 Xrotation Yrotation Zrotation
							}
						}
					}
				}
			}
		}
	}
}
MOTION
Frames: 9
Frame Time: 0.008333
 -2.3067 30.8115 21.9130 16.1991 -5.3872 -0.1471 -32.4742 -7.5661 5.1673 43.9864 -0.0000 0.0000 -28.2361 8.0563 -2.9222 -11.0369 0.0000 0.0000 -32.6684 2.3874 -1.5555 41.7723 -0.0000 0.0000 -36.9114 -4.1045 -3.9671 6.5043 -0.0000 0.0000 1.9859 2.6923 -0.4092 15.8969 -0.2975 -2.1747 -0.6575 4.1705 -8.3254 8.3678 4.9762 3.1264 19.0343 10.2014 -0.6771 -25.7832 -40.2425 -77.2927 -0.0002 -44.1035 -0.0001 0.9679 -0.0851 2.0183 -0.0000 0.0000 0.0000 -0.0000 0.0000 0.0000 10.7242 -15.2298 -2.5847 -12.4570 37.7742 74.5129 -0.0004 60.8743 0.0002 -31.6864 1.1635 5.2208 -0.0000 0.0000 0.0000 -0.0000 0.0000 0.0000
 -2.2992 30.9710 21.7911 16.1412 -5.4521 -0.1282 -31.8825 -7.6568 5.1671 42.4692 -0.0000 0.0000 -27.4050 8.1816 -2.7778 -11.2527 0.0000 -0.0000 -32.1217 2.2077 -1.6112 40.2715 -0.0000 0.0000 -36.0079 -3.7362 -4.2877 6.5704 -0.0000 0.0000 1.9074 2.6510 -0.4326 16.0756 -0.3573 -2.1910 -0.1024 4.2310 -8.4414 8.5824 5.0669 3.2949 19.0975 10.4892 -0.6081 -26.0303 -40.9388 -77.4909 -0.0002 -43.3253 -0.0001 1.0136 -0.6089 2.3828 0.0000 -0.0000 -0.0000 0.0000 -0.0000 -0.0000 10.7636 -15.0248 -2.5837 -12.8322 38.1677 74.6133 -0.0004 60.3812 0.0002 -31.2599 0.9652 5.2334 0.0000 -0.0000 0.0000 0.0000 -0.0000 0.0000
 -2.2909 31.1184 21.6598 16.2438 -5.4405 -0.1138 -31.5473 -7.8007 5.1378 41.0890 -0.0000 0.0000 -26.5802 8.3149 -2.4030 -11.4100 0.0000 -0.0000 -31.7814 1.9708 -1.6841 38.8588 -0.0000 0.0000 -35.0772 -3.3743 -4.4865 6.2262 -0.0000 0.0000 1.8774 2.6491 -0.4302 15.9642 -0.3529 -2.1717 0.2079 4.1681 -8.5141 9.3462 5.1845 3.3469 18.8168 10.5429 -0.4672 -25.6924 -41.3553 -77.6073 -0.0002 -42.6398 -0.0001 0.8967 -1.2024 2.5705 -0.0000 -0.0000 -0.0000 -0.0000 -0.0000 -0.0000 10.4829 -15.0029 -2.6575 -12.7303 38.4429 74.7164 -0.0004 59.9689 0.0002 -30.6460 0.6409 5.5863 -0.0000 0.0000 -0.0000 -0.0000 0.0000 -0.0000
 -2.2929 31.2501 21.5373 16.2706 -5.3733 -0.1206 -31.1683 -7.9902 5.1169 39.8070 -0.0000 0.0000 -25.8175 8.4537 -2.0567 -11.6286 0.0000 -0.0000 -31.3663 1.7312 -1.7323 37.5190 -0.0000 0.0000 -34.2416 -3.0097 -4.8554 6.1560 -0.0000 0.0000 1.7891 2.6281 -0.4587 16.0167 -0.3668 -2.1293 0.7151 4.1077 -8.6207 9.6314 5.2642 3.5851 18.8520 10.6245 -0.3471 -25.8704 -41.6642 -77.8860 -0.0002 -41.7791 -0.0001 0.4443 -1.9755 2.7371 0.0000 -0.0000 0.0000 0.0000 -0.0000 0.0000 10.5661 -14.9516 -2.5014 -12.9178 38.8165 74.6203 -0.0004 59.5279 0.0002 -29.9798 0.5072 5.7433 -0.0000 0.0000 -0.0000 -0.0000 0.0000 -0.0000
 -2.2860 31.3651 21.4149 16.3357 -5.3446 -0.1120 -30.8694 -8.2653 5.0581 38.6543 -0.0000 0.0000 -25.0900 8.6625 -1.8218 -11.8266 0.0000 -0.0000 -31.0966 1.5617 -1.7692 36.3830 -0.0000 0.0000 -33.3743 -2.7018 -5.1832 5.6772 -0.0000 -0.0000 1.7427 2.6401 -0.4568 15.9518 -0.3485 -2.1101 1.0261 4.0416 -8.6670 10.3078 5.3553 3.6365 18.6307 10.6488 -0.2680 -25.5957 -41.9954 -78.0002 -0.0002 -41.0015 -0.0001 -0.4588 -2.7697 2.9789 0.0000 0.0000 -0.0000 0.0000 0.0000 -0.0000 10.2562 -14.9338 -2.5375 -12.6993 39.2250 74.6041 -0.0004 59.0086 0.0002 -29.5889 0.5191 5.7920 -0.0000 -0.0000 0.0000 -0.0000 -0.0000 0.0000
 -2.2912 31.4652 21.3006 16.2931 -5.2034 -0.1414 -30.5281 -8.6025 4.9968 37.6217 -0.0000 0.0000 -24.3994 8.8608 -1.5369 -12.0752 0.0000 -0.0000 -30.7213 1.4037 -1.7803 35.3259 -0.0000 0.0000 -32.6268 -2.5150 -5.5002 5.5955 0.0000 -0.0000 1.6664 2.6139 -0.5014 16.1283 -0.3576 -2.0310 1.4219 4.1261 -8.6965 10.5540 5.2432 3.8417 18.5533 10.6343 -0.1480 -25.6887 -42.0503 -78.3042 -0.0002 -40.1812 -0.0001 -1.4275 -3.5494 2.9066 -0.0000 0.0000 -0.0000 -0.0000 0.0000 -0.0000 10.5925 -15.0506 -2.1328 -13.0367 39.9058 74.2002 -0.0003 58.5618 0.0002 -29.2675 0.4028 5.7290 -0.0000 -0.0000 -0.0000 -0.0000 -0.0000 -0.0000
 -2.2886 31.5482 21.1823 16.3130 -5.1563 -0.1338 -30.3024 -8.9329 4.9261 36.7194 -0.0000 0.0000 -23.7793 9.0968 -1.3556 -12.2965 0.0000 0.0000 -30.5703 1.4265 -1.7579 34.5547 -0.0000 0.0000 -31.9916 -2.4305 -5.7639 5.6889 -0.0000 0.0000 1.6480 2.6372 -0.4949 16.1126 -0.3292 -2.0161 1.6533 4.1265 -8.7445 11.1591 5.2821 3.9081 18.4003 10.6247 -0.1422 -25.4940 -42.1323 -78.3987 -0.0002 -39.4528 -0.0001 -2.1782 -4.0392 2.8325 0.0000 0.0000 -0.0000 0.0000 0.0000 -0.0000 10.3562 -15.0604 -2.1130 -12.8645 40.3084 74.1551 -0.0003 57.9836 0.0002 -28.9274 0.6017 5.8329 -0.0000 -0.0000 0.0000 -0.0000 -0.0000 0.0000
 -2.2942 31.6145 21.0716 16.2215 -5.0484 -0.1366 -30.0696 -9.2683 4.8408 36.0208 -0.0000 0.0000 -23.1901 9.3039 -1.1465 -12.4145 0.0000 0.0000 -30.3369 1.5413 -1.7245 33.9255 -0.0000 0.0000 -31.6388 -2.4377 -5.8064 5.9753 -0.0000 -0.0000 1.6337 2.6212 -0.5366 16.2476 -0.3329 -1.9566 2.0598 4.2986 -8.7844 11.2925 5.1091 4.0503 18.3834 10.5034 -0.1080 -25.4532 -41.8286 -78.5498 -0.0002 -38.8299 -0.0001 -3.7678 -4.7228 2.2162 0.0000 -0.0000 0.0000 0.0000 -0.0000 0.0000 10.8730 -15.2419 -1.6641 -13.3778 41.0988 73.7491 -0.0003 57.4338 0.0002 -28.8111 0.4928 5.8585 -0.0000 -0.0000 -0.0000 -0.0000 -0.0000 -0.0000
 -2.2976 31.6631 20.9568 16.1895 -5.0174 -0.1276 -29.9375 -9.5526 4.7929 35.4227 -0.0000 0.0000 -22.7212 9.4758 -1.1062 -12.4320 0.0000 0.0000 -30.3076 1.8297 -1.6351 33.5711 -0.0000 0.0000 -31.2794 -2.5084 -6.1463 5.8987 -0.0000 -0.0000 1.6279 2.6503 -0.5279 16.2896 -0.3039 -1.9564 2.2718 4.3174 -8.8263 11.7447 5.1063 4.0788 18.3343 10.4724 -0.1749 -25.2929 -41.7999 -78.5283 -0.0002 -38.2603 -0.0001 -5.1010 -4.9273 1.7568 0.0000 -0.0000 0.0000 0.0000 -0.0000 0.0000 10.6332 -15.2438 -1.6258 -13.1847 41.4738 73.6709 -0.0003 56.8709 0.0002 -28.6620 0.5726 6.0583 -0.0000 -0.0000 -0.0000 -0.0000 -0.0000 -0.0000
